<svg width="22" height="23" viewBox="0 0 22 23" fill="none"
  xmlns="http://www.w3.org/2000/svg">
  <path fill-rule="evenodd" clip-rule="evenodd" d="M16.9237 3.59037C17.7863 3.09744 18.8596 3.72029 18.8596 4.71385V15.6034C18.8596 16.597 17.7863 17.2198 16.9237 16.7269C16.9237 16.7269 16.9236 16.7268 16.9236 16.7268L12.3443 14.1101H7.09207C4.90974 14.1101 3.14062 12.3409 3.14062 10.1586C3.14062 7.97631 4.90975 6.20718 7.09207 6.20718H12.3443L16.9237 3.59037L17.2868 4.22582L16.9237 3.59037ZM11.7384 7.85718H7.09207C5.82102 7.85718 4.79062 8.88758 4.79062 10.1586C4.79062 11.4297 5.82102 12.4601 7.09207 12.4601H11.7384V7.85718ZM13.3884 12.8063L17.2096 14.9899V5.32735L13.3884 7.51095V12.8063ZM17.7418 15.294L17.7423 15.2943L17.7423 15.2943C17.7422 15.2942 17.742 15.2941 17.7418 15.294Z" fill="#8D8A99"/>
  <path fill-rule="evenodd" clip-rule="evenodd" d="M6.14062 12.459H10.9338L11.5643 16.8722C11.7685 18.3016 10.6594 19.5803 9.21562 19.5803C8.03494 19.5803 7.03393 18.7121 6.86696 17.5433L6.14062 12.459ZM8.04309 14.109L8.50037 17.3099C8.55122 17.6659 8.85606 17.9303 9.21562 17.9303C9.65533 17.9303 9.99308 17.5408 9.93091 17.1056C9.93091 17.1056 9.93091 17.1056 9.93091 17.1056L9.50279 14.109H8.04309Z" fill="#8D8A99"/>
</svg>
