<svg width="20" height="18" viewBox="0 0 20 18" fill="none" xmlns="http://www.w3.org/2000/svg">
<path d="M9.99965 0.363647C7.69499 0.363647 5.52433 1.28731 3.88719 2.96449C2.25981 4.63437 1.36328 6.84144 1.36328 9.18462V17.6361H3.78V9.18462C3.78 7.47585 4.43291 5.8643 5.61934 4.64652C6.79603 3.43847 8.35277 2.77489 9.99965 2.77489C11.6465 2.77489 13.2033 3.4409 14.38 4.64652C15.5664 5.86187 16.2193 7.47342 16.2193 9.18462V17.6361H18.636V9.18462C18.636 6.84387 17.7395 4.63437 16.1121 2.96449C14.4774 1.28731 12.3067 0.363647 9.99965 0.363647Z" fill="white"/>
<path d="M9.99938 8.83484C9.33429 8.83484 8.79102 9.37688 8.79102 10.0405V17.6364H11.2077V10.0405C11.2077 9.37688 10.6645 8.83484 9.99938 8.83484Z" fill="#FA5E06"/>
</svg>
