<svg fill="none" xmlns="http://www.w3.org/2000/svg" viewBox="0 0 115 24"><path d="M15.174 5.028a7.867 7.867 0 0 0-3.07-.618c-1.089 0-2.125.22-3.069.618l2.82-4.885a.286.286 0 0 1 .496 0l2.821 4.885h.002ZM8.285 5.394a7.9 7.9 0 0 0-3.809 4.884L2.38 4.938a.286.286 0 0 1 .31-.388l5.595.844ZM5.895 17.167.203 15.411a.287.287 0 0 1-.112-.484l4.228-3.923c-.069.42-.105.854-.105 1.295 0 1.837.628 3.529 1.68 4.868ZM11.987 20.188l-4.99 3.401a.286.286 0 0 1-.448-.215l-.445-5.954a7.869 7.869 0 0 0 5.883 2.766v.002ZM18.087 17.443l-.443 5.924a.287.287 0 0 1-.447.215l-4.98-3.395a7.868 7.868 0 0 0 5.87-2.744ZM24.002 15.393l-5.667 1.748a7.85 7.85 0 0 0 1.66-4.842c0-.447-.038-.886-.11-1.313l4.227 3.921c.162.15.1.421-.11.484v.002ZM21.83 4.948l-2.095 5.338a7.913 7.913 0 0 0-3.797-4.885l5.582-.841a.287.287 0 0 1 .31.388ZM12.105 21.89a2.107 2.107 0 0 0-2.108 2.108h4.218a2.107 2.107 0 0 0-2.108-2.107h-.002ZM19.813 18.438a2.11 2.11 0 0 0 .333 2.964l2.628-3.297a2.11 2.11 0 0 0-2.963.333h.002ZM21.54 10.284a2.106 2.106 0 0 0 2.525 1.586l-.94-4.112a2.106 2.106 0 0 0-1.585 2.524v.002ZM16.367 3.835a2.108 2.108 0 0 0 2.816-.986l-3.8-1.83a2.108 2.108 0 0 0 .986 2.816h-.002ZM7.747 3.835A2.109 2.109 0 0 0 8.73 1.02L4.931 2.849a2.109 2.109 0 0 0 2.816.984v.002ZM2.724 10.284A2.108 2.108 0 0 0 1.136 7.76L.2 11.872a2.108 2.108 0 0 0 2.525-1.588ZM1.728 18.105l2.63 3.297a2.11 2.11 0 0 0-2.63-3.297ZM36.147 6.127v6.037h7.084V6.477h3.228v13.537h-3.228v-4.972h-7.084v4.972H32.92V7l3.227-.872ZM52.303 17.134h9.875l-.872 2.878H49.077V6.475H62.18l-.872 2.878h-9.003v2.46h8.391v2.878h-8.39v2.443h-.003ZM67.36 6.475v10.659h9.525l-.872 2.878H64.13V6.475h3.228ZM81.509 6.475v13.537h-3.228V6.475h3.228ZM95.047 6.475h3.228v8.165c0 3.943-3.228 5.669-7.397 5.669-4.17 0-7.172-1.85-7.172-5.67V7l3.228-.872v8.513c0 1.988 1.326 2.74 4.1 2.74 2.775 0 4.013-.803 4.013-2.74V6.475ZM99.915 10.593c0-2.076 1.64-4.118 4.85-4.118h9.212l-.872 2.878H104.8c-.994 0-1.484.628-1.484 1.238s.506 1.222 1.484 1.222h4.675c3.157 0 4.797 2.04 4.797 4.118 0 2.077-1.553 4.081-4.797 4.081h-9.56l.872-2.878h8.653c.978 0 1.484-.575 1.484-1.203 0-.628-.488-1.256-1.484-1.256h-4.675c-3.262 0-4.85-2.041-4.85-4.082Z" fill="#FAFAFA"/></svg>