<svg width="144" height="40" viewBox="0 0 144 40" fill="none" xmlns="http://www.w3.org/2000/svg">
<g clip-path="url(#clip0_404_20094)">
<path d="M70.6788 8.23089H54.3283V4.3078H76.1131V8.23089L59.0702 30.9518V31.7691H76.0669V35.6922H53.5898V31.7691L70.6788 9.04819V8.23089Z" fill="#28281E"/>
<path d="M87.1187 36.246C85.4261 36.246 83.9413 35.9381 82.6647 35.323C81.3877 34.7078 80.3262 33.8619 79.4801 32.7845C78.6334 31.7078 78.0032 30.4155 77.5879 28.9076C77.1725 27.4003 76.9648 25.7388 76.9648 23.9229C76.9648 22.1388 77.1877 20.4844 77.634 18.9614C78.0797 17.4383 78.7417 16.1388 79.6187 15.0614C80.4955 13.9847 81.5571 13.1387 82.8033 12.5229C84.0494 11.9078 85.4874 11.5998 87.1187 11.5998C88.8104 11.5998 90.2873 11.8926 91.5494 12.4767C92.8108 13.0616 93.8571 13.8613 94.688 14.8767C95.5187 15.8921 96.1417 17.0849 96.5573 18.4537C96.9726 19.8231 97.1803 21.2922 97.1803 22.8614V25.0768H81.3494V27.5691C81.3494 28.4309 81.5109 29.1924 81.834 29.8537C82.1571 30.5157 82.5956 31.0768 83.1494 31.5383C83.7033 31.9999 84.3263 32.346 85.0186 32.5768C85.7109 32.8076 86.4264 32.923 87.1648 32.923C88.6417 32.923 89.9183 32.5465 90.9956 31.7922C92.0723 31.0386 92.6875 29.8465 92.8417 28.2152H96.9956C96.9033 29.4773 96.5723 30.6001 96.0034 31.5845C95.4336 32.5696 94.6952 33.4076 93.788 34.0999C92.88 34.7922 91.8567 35.323 90.7187 35.6922C89.58 36.0614 88.3799 36.246 87.1187 36.246ZM92.888 20.4614C92.888 19.6003 92.7335 18.8229 92.4264 18.1306C92.1184 17.4383 91.6951 16.8541 91.1572 16.3767C90.6184 15.9 90.0032 15.5388 89.311 15.2921C88.6187 15.0462 87.8875 14.9229 87.1187 14.9229C86.3493 14.9229 85.6187 15.0462 84.9263 15.2921C84.234 15.5388 83.6182 15.9 83.0802 16.3767C82.5415 16.8541 82.1182 17.4383 81.811 18.1306C81.5029 18.8229 81.3494 19.6003 81.3494 20.4614V21.7537H92.888V20.4614Z" fill="#28281E"/>
<path d="M121.12 4.3078H116.782V8.64636H121.12V4.3078Z" fill="#28281E"/>
<path d="M100.259 35.6922V4.3078H104.413V35.6922H100.259Z" fill="#28281E"/>
<path d="M108.566 35.6922V4.3078H112.72V35.6922H108.566Z" fill="#28281E"/>
<path d="M121.028 12.1537H116.875V35.6922H121.028V12.1537Z" fill="#28281E"/>
<path d="M124.158 24.1075C124.158 22.2311 124.381 20.5154 124.827 18.9614C125.273 17.408 125.927 16.0926 126.789 15.0152C127.65 13.9385 128.711 13.0998 129.973 12.4998C131.235 11.8998 132.666 11.5998 134.266 11.5998C135.496 11.5998 136.658 11.7613 137.75 12.0844C138.842 12.4075 139.804 12.908 140.635 13.5844C141.466 14.2616 142.142 15.1234 142.666 16.1691C143.189 17.2154 143.512 18.4464 143.635 19.8614H139.481C139.389 18.908 139.189 18.1155 138.881 17.4844C138.573 16.8541 138.173 16.3464 137.681 15.9613C137.189 15.577 136.627 15.308 135.997 15.1537C135.366 15.0001 134.712 14.9229 134.035 14.9229C133.327 14.9229 132.65 15.0383 132.004 15.269C131.358 15.4998 130.773 15.846 130.25 16.3075C129.727 16.7691 129.312 17.346 129.004 18.0383C128.696 18.7306 128.543 19.5383 128.543 20.4614V27.3845C128.543 28.2152 128.688 28.9768 128.981 29.6691C129.273 30.3614 129.674 30.9463 130.181 31.423C130.689 31.9004 131.273 32.2696 131.935 32.5307C132.596 32.7924 133.312 32.9229 134.081 32.9229C135.62 32.9229 136.897 32.5075 137.912 31.6768C138.927 30.846 139.512 29.5537 139.666 27.7998H143.82C143.665 29.2465 143.296 30.4999 142.712 31.5614C142.127 32.623 141.404 33.4999 140.543 34.1922C139.681 34.8845 138.704 35.4001 137.612 35.7384C136.52 36.0766 135.374 36.246 134.174 36.246C132.45 36.246 130.966 35.946 129.72 35.346C128.474 34.746 127.435 33.9001 126.604 32.8076C125.773 31.7157 125.158 30.4307 124.758 28.9537C124.358 27.4768 124.158 25.8614 124.158 24.1075Z" fill="#28281E"/>
<path d="M13.7179 0.384766V16.2257L11.1025 14.7153V0.384766H13.7179Z" fill="#28281E"/>
<path d="M18.9489 0.384766V19.2448L16.3335 17.7344V0.384766H18.9489Z" fill="#28281E"/>
<path d="M1.30768 18.1198L15.0263 26.0403L12.4106 27.5501L0 20.3848L1.30768 18.1198Z" fill="#28281E"/>
<path d="M3.92292 13.5898L20.2562 23.0199L17.6405 24.5297L2.61523 15.8548L3.92292 13.5898Z" fill="#28281E"/>
<path d="M10.4614 37.735L24.1801 29.8146L24.1797 32.8347L11.7691 40L10.4614 37.735Z" fill="#28281E"/>
<path d="M7.84619 33.2051L24.1795 23.775L24.1791 26.7952L9.15387 35.47L7.84619 33.2051Z" fill="#28281E"/>
<path d="M32.0259 39.6152V23.7743L34.6412 25.2847V39.6152H32.0259Z" fill="#28281E"/>
<path d="M26.7949 39.6152V20.7552L29.4103 22.2656V39.6152H26.7949Z" fill="#28281E"/>
<path d="M44.4359 21.8802L30.7173 13.9597L33.333 12.45L45.7436 19.6152L44.4359 21.8802Z" fill="#28281E"/>
<path d="M41.8206 26.4102L25.4873 16.9801L28.103 15.4703L43.1283 24.1452L41.8206 26.4102Z" fill="#28281E"/>
<path d="M35.2821 2.26497L21.5635 10.1854L21.5638 7.16528L33.9744 0L35.2821 2.26497Z" fill="#28281E"/>
<path d="M37.8977 6.79494L21.5645 16.225L21.5648 13.2048L36.5901 4.52997L37.8977 6.79494Z" fill="#28281E"/>
</g>
<defs>
<clipPath id="clip0_404_20094">
<rect width="143.82" height="40" fill="white"/>
</clipPath>
</defs>
</svg>
